PathFileType	4	(X/Y/Z)	Patient4_TMGait_0pt8_01_right_35.trc.trc
DataRate	CameraRate	NumFrames	NumMarkers	Units	OrigDataRate	OrigDataStartFrame	OrigNumFrames
88.050314465409	88.050314465409	6	33	mm	88.050314465409	89	       141
Frame#	Time	Sacral			L.Shoulder			Chest			R.Shoulder			Neck			R.ASIS			L.ASIS			R.Thigh.Superior			R.Thigh.Lateral			R.Thigh.Inferior			R.Patella			L.Thigh.Superior			L.Thigh.Lateral			L.Thigh.Inferior			L.Patella			L.Shank.Superior			L.Shank.Lateral			L.Shank.Inferior			R.Shank.Superior			R.Shank.Lateral			R.Shank.Inferior			R.Heel			R.Midfoot.Superior			R.Midfoot.Lateral			R.Toe			L.Heel			L.Midfoot.Lateral			L.Midfoot.Superior			L.Toe			L.Elbow			L.Wrist			R.Elbow			R.Wrist			
		X1	Y1	Z1	X2	Y2	Z2	X3	Y3	Z3	X4	Y4	Z4	X5	Y5	Z5	X6	Y6	Z6	X7	Y7	Z7	X8	Y8	Z8	X9	Y9	Z9	X10	Y10	Z10	X11	Y11	Z11	X12	Y12	Z12	X13	Y13	Z13	X14	Y14	Z14	X15	Y15	Z15	X16	Y16	Z16	X17	Y17	Z17	X18	Y18	Z18	X19	Y19	Z19	X20	Y20	Z20	X21	Y21	Z21	X22	Y22	Z22	X23	Y23	Z23	X24	Y24	Z24	X25	Y25	Z25	X26	Y26	Z26	X27	Y27	Z27	X28	Y28	Z28	X29	Y29	Z29	X30	Y30	Z30	X31	Y31	Z31	X32	Y32	Z32	X33	Y33	Z33	

89	40.189428571429	894.091123009363	1009.431316347129	465.526527092729	1042.813781886222	1438.270577026875	290.117578678024	1165.818859676056	1367.641044412845	436.212240287292	1100.950724876943	1435.089804654165	620.542390350076	1041.147571730703	1492.980714800814	449.424204551676	1121.987543111024	934.313450634625	565.997769315885	1097.885690937672	962.204778864881	295.298202895399	1138.230078760137	723.460687273862	549.993400447003	1046.258140509804	623.487324975130	616.932229307835	1120.125632338960	555.402034152060	543.881565976802	1098.566317653520	448.149501609348	564.479693505844	1164.776257160759	762.796567487798	322.798254950934	1086.971765563337	636.235149646941	267.322881508123	1184.557270580926	567.900181879670	325.138185619837	1194.284937314899	497.408860370193	334.497648719929	1168.953005810953	422.707434963966	329.823884053865	1081.804556123723	305.005065734346	284.229579066012	1139.359678172052	196.091687475774	352.768393610158	1015.356410560073	388.625964549916	571.334425315068	892.483937522209	359.857756588691	634.519818108109	868.526498926543	252.162499577857	584.455001067909	661.928825468278	202.605937938601	558.749441720787	827.393267053146	135.594999850980	597.584307708059	716.805066687021	135.359321807972	627.693134122350	885.750300787904	29.228379821525	614.308981231555	1016.891002315338	38.656118513051	399.200604482901	1087.943151567991	36.508021951905	315.813919933927	1172.005238488590	97.593969439320	340.653247490918	1299.435332909147	44.354344201292	307.113703219072	917.190105980756	1107.399841552296	194.077587730478	896.604851151852	847.741687636156	206.138130115785	1215.921289025469	1108.019764599716	726.908580498068	1456.508723683445	1164.167785642289	678.380144101946	
90	40.200785714286	893.174666832037	1009.752843119551	462.740410987497	1044.166145936459	1439.081757069981	288.191581236721	1165.778055739189	1368.220824516029	435.327510233394	1099.269620300949	1435.409512862467	619.217958809657	1041.005301956660	1493.708609254961	447.494615346604	1121.009756368361	935.149806054800	564.188252456910	1097.908354885152	962.766731397354	293.439375000733	1143.360990509077	725.934146401021	548.044673997473	1054.830319247683	623.679222331384	614.895174085148	1130.639144009698	557.313487452599	541.560006617777	1110.896198158438	448.664783820543	562.360001183116	1163.260250880870	761.620014509600	320.617757945923	1083.776266087329	636.026550030619	266.044729304471	1180.348898743388	566.776821929263	324.185830264263	1189.154658348025	496.402925077433	333.904919845617	1163.228577014002	421.864426749059	329.214129723255	1075.160072203321	304.843846282795	283.692347268113	1131.478992719016	195.586274445295	352.602564898099	1025.965526210182	389.867358622873	569.498321050306	902.025018724338	365.154127944654	632.534806915559	874.856783325191	258.003041251799	583.370956058565	667.693869649958	217.346929227376	557.635749675631	829.588582858253	141.870757079854	597.182692471556	718.918969043567	147.339079458620	626.929409097900	881.906766671784	29.349342476656	614.410268580367	1007.710127901059	38.681105658969	399.107751352843	1078.773728866703	36.438232227438	315.758745105811	1162.992579943273	97.401066238539	340.677933305712	1290.373485222720	43.739162146583	307.122612386421	925.108852724113	1105.793542428832	188.907131413740	915.901599386197	845.228307248256	199.184876354618	1204.579764963917	1104.065093931778	725.619142035152	1448.635444954547	1147.570626154978	680.440651821244	
91	40.212142857143	892.099072168603	1009.966415076829	460.084996237978	1045.369413182434	1439.688262564953	286.363096022056	1165.574035281441	1368.660483122445	434.566599551236	1097.418477373835	1435.599133276446	618.009991011455	1040.740507217116	1494.327281848895	445.611317703678	1119.869961519828	935.881816271300	562.629971514235	1097.803939514324	963.179693369842	291.767782379381	1148.315496918025	728.641594140237	546.094541119387	1063.464957271048	624.199510192061	612.920425758229	1141.050974140554	559.708725495477	539.136059050754	1123.417968523606	449.760803271834	560.049965736384	1161.585434314933	760.459154099803	318.887064815003	1080.715100723912	635.873192942305	264.833993218242	1176.154075868614	565.700245826543	323.444472083620	1184.044628552265	495.397255429004	333.411774807493	1157.517501642404	421.014011460532	328.670653967095	1068.537786796137	304.692766344461	283.172022907673	1123.592346412775	195.079936260977	352.452131668589	1037.024355612040	391.496816653022	567.545176104723	912.202214144704	370.379994522030	630.377097321048	882.249546653116	263.756386672834	582.052764998047	674.853007770925	230.887324992654	556.232587841285	833.330807590418	148.126441773418	596.412248068374	722.793390297828	158.664062392969	625.924658935181	880.204868549872	30.247866701201	614.290469338793	998.545011147781	38.720164114691	398.992509925489	1069.620152060294	36.381446921710	315.687822995996	1153.984310792491	97.220302133774	340.688486303327	1281.312560061328	43.173765782187	307.118732494939	933.514656973813	1104.048624662895	183.650120832870	936.132026184957	843.069995528106	192.225134827544	1192.789745444679	1100.159222788631	724.169484560838	1439.888007809071	1129.503850418631	682.731762615795	
92	40.223500000000	890.893053906108	1010.129799658853	457.546198666651	1046.407818717977	1440.128740924016	284.650285765433	1165.214739846787	1369.004521878326	433.926853343749	1095.423490776624	1435.700738104469	616.917815511989	1040.367531883207	1494.864816774689	443.798845009490	1118.575922456691	936.551172932657	561.309621585787	1097.608988951731	963.497601655891	290.292752322406	1153.017422746202	731.623970043038	544.096218216584	1072.076814538854	625.114175589079	611.017480910859	1151.265804163049	562.635951589034	536.643946321682	1136.041424673503	451.493384634298	557.636345485674	1159.795279950424	759.346811015653	317.550033667958	1077.718038713108	635.769991871932	263.709775154970	1171.936255670832	564.663535882624	322.876305229955	1178.922138652463	494.400748446995	333.026259430254	1151.792337761256	420.169235273589	328.202639439574	1061.912275697196	304.561801636416	282.682157478659	1115.689117312935	194.584130677510	352.322331124250	1048.473480580470	393.525283503103	565.520244560182	922.937293909687	375.437185406323	628.100326989544	890.727117106950	269.264737489071	580.530899760295	683.315707447802	242.775598571476	554.576500050544	838.764569237454	154.116910882971	595.261183681524	728.504949459091	168.907657245868	624.687226165136	881.060626941541	31.944337457882	613.901097242528	989.398548457866	38.771455998346	398.856736138045	1060.483467187589	36.339945189819	315.600960766522	1144.975318398802	97.059923658153	340.680784755279	1272.250342966612	42.680117378014	307.090609979260	942.469795983875	1102.236589176762	178.333762045615	957.240410938965	841.394692512005	185.331959798090	1180.647380167343	1096.394644582088	722.574847556372	1430.107260905489	1110.093633224230	685.219070724331	
93	40.234857142857	889.591117325638	1010.292814368924	455.112568649707	1047.281595828249	1440.448992385546	283.065456886306	1164.713888786555	1369.297129605072	433.404608760104	1093.306929684540	1435.755460307966	615.936117275056	1039.905332100040	1495.347909506795	442.081861468298	1117.137704263172	937.204371790287	560.215281076143	1097.360290844554	963.769291871006	289.026067558534	1157.418432626899	734.917861368631	542.026104040134	1080.592771352780	626.470705975169	609.194899900074	1161.215345343130	566.123817018764	534.126883918779	1148.685300486520	453.899901402653	555.194793997723	1157.928093084797	758.295807984286	316.542326897157	1074.709071455417	635.708948286212	262.693103666695	1167.649499144780	563.656408656000	322.452630544620	1173.741138146771	493.419433562421	332.758555720638	1146.014224225835	419.342183494525	327.820173015371	1055.249198406004	304.457245167155	282.238781885225	1107.756814806382	194.108708823090	352.218688913331	1060.261058224785	395.942877712935	563.459434185581	934.160542580782	380.219658133913	625.759831933536	900.298091607925	274.370536320355	578.840790067593	692.991356834370	252.638990018113	552.708952693890	845.999883742265	159.603344831068	593.750251040785	736.088253130198	177.697226699394	623.237091134011	884.800973759128	34.335269006756	613.229328595513	980.268324363420	38.832979812923	398.705270412937	1051.361224715555	36.313882322429	315.501305087188	1135.960438259598	96.923195407567	340.655450502588	1263.184180670559	42.267788202564	307.033990889580	952.007071681980	1100.451895084407	172.993744418882	979.150405523354	840.339822773993	178.580206714882	1168.263404633028	1092.866285854271	720.867277188073	1419.136871520428	1089.517230789063	687.858763249149	
94	40.246214285714	888.230827634511	1010.490727108167	452.778868497725	1048.009346499605	1440.696744237599	281.613943246075	1164.090927867595	1369.576119477397	432.996091438457	1091.087708138175	1435.799633928595	615.055376752196	1039.375340221704	1495.799991802946	440.480973302149	1115.567914382870	937.886469613037	559.337554060240	1097.089076803557	964.032924891436	287.978677783903	1161.495264079134	738.550013704009	539.889902363733	1088.951101896276	628.294307194950	607.462513590473	1170.852507302865	570.178092430431	531.633064798897	1161.274247217339	456.996329935553	552.786029888625	1156.011707499664	757.303610477249	315.803987996574	1071.621908260195	635.683354575062	261.800883670787	1163.247229608218	562.669116079411	322.157396456886	1168.450430991567	492.456658030743	332.618027437964	1140.140742276878	418.543563138582	327.531262606012	1048.512263498122	304.382485227024	281.856474399438	1099.783457926960	193.661674536608	352.145150663812	1072.337236402649	398.723639744330	561.392561209648	945.808014011626	384.620096977026	623.409596837056	910.953584766172	278.927342777533	577.022870423776	703.801835503282	260.205623238953	550.674136046270	855.103868378722	164.370221155741	591.938143056606	745.535267486069	184.737577534489	621.605649530991	891.627008602127	37.204731678491	612.301573130391	971.148495468654	38.903017752166	398.544425619816	1042.249230216522	36.301965857038	315.393815931556	1126.935702608326	96.809695601269	340.615994693261	1254.111993483263	41.936317995930	306.950067493858	962.120852300360	1098.802734494963	167.673470912495	1001.762303569422	840.045191083302	172.044558789301	1155.761337770723	1089.663064490062	719.094738775078	1406.832516412688	1068.004059395574	690.597669796983	
